<svg width="2000" height="422" viewBox="0 0 2000 422" fill="none" xmlns="http://www.w3.org/2000/svg">
<path d="M323.762 39.6217V370.281H489.092C534.645 370.281 573.597 354.112 605.925 321.784C638.252 289.457 654.421 250.505 654.421 204.951C654.421 159.397 638.252 120.446 605.925 88.1184C573.597 55.7909 534.645 39.6217 489.092 39.6217H323.762Z" fill="white"/>
<path fill-rule="evenodd" clip-rule="evenodd" d="M489.092 25.4362C538.558 25.4362 580.85 42.9831 615.955 78.0881C651.06 113.193 668.607 155.484 668.607 204.951C668.607 254.418 651.06 296.709 615.955 331.814C580.85 366.919 538.558 384.466 489.092 384.466H309.577V25.4362H489.092ZM337.947 53.8067V356.095H489.092C530.744 356.095 566.334 341.315 595.895 311.754C625.456 282.193 640.236 246.603 640.236 204.951C640.236 163.299 625.456 127.709 595.895 98.1481C566.334 68.5872 530.744 53.8067 489.092 53.8067H337.947Z" fill="black"/>
<path d="M74.6186 191.155C111.428 191.155 141.268 161.315 141.268 124.505C141.268 87.6953 111.428 57.8551 74.6186 57.8551C37.809 57.8551 7.96883 87.6953 7.96883 124.505C7.96883 161.315 37.809 191.155 74.6186 191.155Z" fill="white"/>
<path fill-rule="evenodd" clip-rule="evenodd" d="M74.6259 49.8915C115.812 49.8915 149.251 83.3303 149.251 124.513C149.251 165.699 115.812 199.138 74.6259 199.138C33.4398 199.138 0.000869751 165.699 0.000869751 124.513C0.000869751 83.3303 33.4398 49.8915 74.6259 49.8915ZM74.6259 67.2085C42.9992 67.2085 17.3215 92.8862 17.3215 124.513C17.3215 156.143 42.9992 181.821 74.6259 181.821C106.253 181.821 131.93 156.143 131.93 124.513C131.93 92.8862 106.253 67.2085 74.6259 67.2085Z" fill="black"/>
<path d="M74.6186 353.23C111.428 353.23 141.268 323.39 141.268 286.58C141.268 249.771 111.428 219.93 74.6186 219.93C37.809 219.93 7.96883 249.771 7.96883 286.58C7.96883 323.39 37.809 353.23 74.6186 353.23Z" fill="white"/>
<path fill-rule="evenodd" clip-rule="evenodd" d="M74.6259 211.965C115.812 211.965 149.251 245.404 149.251 286.587C149.251 327.773 115.812 361.212 74.6259 361.212C33.4398 361.212 0.000869751 327.773 0.000869751 286.587C0.000869751 245.404 33.4398 211.965 74.6259 211.965ZM74.6259 229.282C42.9992 229.282 17.3215 254.96 17.3215 286.587C17.3215 318.217 42.9992 343.895 74.6259 343.895C106.253 343.895 131.93 318.217 131.93 286.587C131.93 254.96 106.253 229.282 74.6259 229.282Z" fill="black"/>
<path d="M323.769 112.442H144.648V134.926H323.769V112.442Z" fill="black"/>
<path d="M323.769 275.344H144.648V297.828H323.769V275.344Z" fill="black"/>
<path d="M708.958 234.929C725.512 234.929 738.931 221.509 738.931 204.955C738.931 188.401 725.512 174.981 708.958 174.981C692.404 174.981 678.984 188.401 678.984 204.955C678.984 221.509 692.404 234.929 708.958 234.929Z" fill="white"/>
<path fill-rule="evenodd" clip-rule="evenodd" d="M708.958 163.96C731.584 163.96 749.952 182.329 749.952 204.955C749.952 227.581 731.584 245.951 708.958 245.951C686.332 245.951 667.963 227.581 667.963 204.955C667.963 182.329 686.332 163.96 708.958 163.96ZM708.958 186.002C698.497 186.002 690.005 194.494 690.005 204.955C690.005 215.417 698.497 223.909 708.958 223.909C719.418 223.909 727.911 215.417 727.911 204.955C727.911 194.494 719.418 186.002 708.958 186.002Z" fill="black"/>
<path fill-rule="evenodd" clip-rule="evenodd" d="M807.943 180.622V36.4998H856.41V180.622H807.943ZM919.711 180.622V171.594C919.711 157.128 922.933 144.743 929.344 134.405C935.754 124.067 944.547 116.18 955.758 110.709C966.934 105.272 979.689 102.553 994.021 102.553C1008.39 102.553 1021.17 105.272 1032.32 110.709C1043.46 116.18 1052.25 124.067 1058.63 134.371C1065.04 144.709 1068.23 157.094 1068.23 171.594V180.622H1020.44V168.17C1020.44 162.732 1019.39 157.899 1017.28 153.704C1015.17 149.542 1012.15 146.287 1008.25 143.971C1004.36 141.655 999.659 140.514 994.121 140.514C988.583 140.514 983.817 141.655 979.89 143.971C975.929 146.287 972.909 149.542 970.794 153.704C968.68 157.899 967.607 162.732 967.607 168.17V180.622H919.711ZM1072.19 180.622V166.156C1072.19 153.334 1074.41 142.191 1078.87 132.726C1083.37 123.295 1089.71 115.944 1097.93 110.742C1106.19 105.506 1115.96 102.889 1127.27 102.889C1134.55 102.889 1141.13 103.996 1146.97 106.144C1152.84 108.326 1157.88 111.548 1162.14 115.777C1166.41 120.04 1169.73 125.276 1172.11 131.519H1173.28V105.775H1220.11V180.622H1173.39V171.224C1173.39 165.384 1172.28 160.316 1170.1 155.953C1167.92 151.623 1164.79 148.233 1160.77 145.85C1156.74 143.434 1152.01 142.225 1146.53 142.225C1141.13 142.225 1136.46 143.4 1132.5 145.749C1128.54 148.098 1125.49 151.422 1123.31 155.718C1121.16 160.048 1120.05 165.216 1120.05 171.224V180.622H1072.19ZM1232.83 180.622V105.775H1279.82V180.622H1232.83ZM1287.74 180.622V171.896C1287.74 157.497 1290.69 145.111 1296.63 134.774C1302.57 124.436 1310.83 116.482 1321.34 110.944C1331.87 105.406 1344.02 102.62 1357.85 102.62C1371.48 102.62 1383.36 105.171 1393.53 110.273C1403.7 115.375 1411.65 122.858 1417.36 132.726C1423.1 142.594 1426.05 154.71 1426.22 169.042V180.622H1382.05L1381.95 165.116C1381.82 157.027 1379.77 150.918 1375.74 146.756C1371.75 142.627 1366.31 140.547 1359.4 140.547C1354.13 140.547 1349.73 141.588 1346.2 143.669C1342.65 145.783 1340 148.737 1338.22 152.53C1336.4 156.356 1335.5 160.92 1335.5 166.223V180.622H1287.74ZM1518.55 180.622V164.109C1518.55 156.625 1516.57 150.684 1512.68 146.321C1508.79 141.991 1503.25 139.809 1496.03 139.809C1488.75 139.809 1483.15 141.889 1479.22 146.085C1475.32 150.314 1473.28 156.188 1473.04 163.807V180.521H1429.18L1429.28 164.109C1429.31 151.556 1432.1 140.681 1437.57 131.451C1443.07 122.221 1450.86 115.106 1460.99 110.071C1471.13 105.07 1483.35 102.553 1497.58 102.553C1511.84 102.553 1524.03 105.037 1534.13 110.005C1544.23 114.972 1551.95 122.12 1557.29 131.485C1562.62 140.883 1565.31 152.126 1565.31 165.317V180.622H1518.55ZM1585.48 180.622V141.99H1564.37V105.741H1585.48V51.268H1633.07V105.741H1662.98V133.734C1668.72 124.101 1676.64 116.549 1686.78 111.078C1697.22 105.439 1709.5 102.62 1723.56 102.62C1737.53 102.62 1749.74 105.339 1760.15 110.81C1770.58 116.28 1778.67 124 1784.38 133.969C1790.08 143.937 1792.94 155.684 1792.94 169.278V180.622H1748.37V164.881C1748.37 159.51 1747.36 154.913 1745.38 151.053C1743.4 147.193 1740.61 144.206 1737.02 142.125C1733.43 140.044 1729.2 139.003 1724.34 139.003C1719.5 139.003 1715.31 140.044 1711.71 142.125C1708.16 144.206 1705.41 147.193 1703.46 151.053C1701.55 154.913 1700.57 159.544 1700.57 164.881V180.622H1653.72V170.251C1653.72 159.813 1655.43 150.381 1658.85 141.99H1633.11V180.622H1585.48ZM1700.57 229.256V262.014C1700.57 267.015 1701.54 271.412 1703.52 275.171C1705.5 278.931 1708.32 281.851 1711.95 283.898C1715.57 285.946 1719.87 286.985 1724.87 286.985C1729.81 286.985 1734.03 286.013 1737.56 284.032C1741.08 282.052 1743.8 279.333 1745.68 275.808C1747.59 272.284 1748.53 268.224 1748.6 263.626L1748.67 251.744L1793.01 251.676L1792.94 260.906C1792.8 270.17 1791.16 278.628 1788.01 286.247C1784.85 293.866 1780.32 300.445 1774.35 305.983C1768.4 311.487 1761.22 315.749 1752.8 318.77C1744.37 321.757 1734.84 323.235 1724.17 323.235C1709.8 323.235 1697.35 320.449 1686.78 314.844C1677.08 309.675 1669.39 302.626 1663.75 293.631V320.651C1661.37 321.154 1658.48 321.557 1655.09 321.926C1651.67 322.261 1648.01 322.429 1644.05 322.429C1624.28 322.429 1609.58 318.167 1599.95 309.608C1590.28 301.049 1585.48 287.892 1585.48 270.137V229.256H1633.11V265.438C1633.11 272.754 1634.82 278.024 1638.24 281.313C1641.7 284.602 1647.1 286.214 1654.49 286.214C1656.33 286.214 1658.01 286.18 1659.52 286.113C1659.59 286.113 1659.66 286.113 1659.72 286.113C1655.7 277.185 1653.72 267.016 1653.72 255.671V229.256H1700.57ZM1565.31 229.256V320.281H1518.55V298.229H1517.28C1515.03 303.465 1511.91 307.93 1507.85 311.622C1503.79 315.347 1499.02 318.2 1493.58 320.214C1488.15 322.228 1482.1 323.235 1475.46 323.235C1464.99 323.235 1455.89 320.986 1448.17 316.522C1440.49 312.058 1434.48 305.748 1430.25 297.592C1426.89 291.148 1424.85 283.73 1424.14 275.406C1422.66 281.917 1420.38 287.791 1417.29 293.06C1411.55 302.962 1403.57 310.447 1393.4 315.582C1383.19 320.684 1371.31 323.235 1357.75 323.235C1343.99 323.235 1331.84 320.449 1321.3 314.844C1310.76 309.239 1302.54 301.284 1296.63 290.946C1290.69 280.609 1287.74 268.29 1287.74 253.992V229.256H1335.5V259.933C1335.5 265.135 1336.4 269.633 1338.22 273.426C1340 277.219 1342.65 280.172 1346.2 282.253C1349.73 284.334 1354.13 285.374 1359.36 285.374C1366.31 285.374 1371.78 283.294 1375.78 279.199C1379.74 275.071 1381.82 268.995 1381.95 260.974L1382.09 237.915H1426.22V238.217C1427.09 235.062 1428.24 232.075 1429.61 229.256H1486.33C1483.35 230.464 1480.76 232.009 1478.58 233.821C1473.18 238.352 1470.49 244.528 1470.49 252.348V264.431C1470.49 271.781 1472.5 277.42 1476.53 281.381C1480.56 285.308 1486.13 287.288 1493.25 287.288C1498.22 287.288 1502.61 286.18 1506.4 283.931C1510.2 281.716 1513.18 278.494 1515.33 274.265C1517.48 270.069 1518.55 265.069 1518.55 259.296V229.256H1565.31ZM1279.82 229.256V320.281H1232.83V229.256H1279.82ZM1220.11 229.256V337.331C1220.11 348.642 1217.22 358.644 1211.41 367.304C1205.64 375.963 1197.38 382.743 1186.64 387.61C1175.9 392.477 1163.22 394.893 1148.58 394.893C1134.08 394.893 1121.46 392.611 1110.72 388.046C1099.98 383.448 1091.62 376.869 1085.72 368.311C1079.78 359.718 1076.79 349.448 1076.79 337.499V331.76H1121.8V338.003C1121.9 344.951 1124.28 350.253 1128.91 353.945C1133.54 357.637 1139.82 359.483 1147.71 359.483C1156.03 359.483 1162.34 357.503 1166.74 353.576C1171.1 349.616 1173.28 343.842 1173.28 336.29V290.544H1172.01C1169.83 295.78 1166.71 300.545 1162.68 304.774C1158.62 309.003 1153.65 312.36 1147.81 314.81C1141.94 317.294 1135.06 318.535 1127.17 318.535C1115.99 318.535 1106.29 315.951 1098.07 310.749C1089.81 305.58 1083.44 298.296 1078.94 288.865C1074.44 279.434 1072.19 268.358 1072.19 255.603V229.256H1120.05V252.851C1120.05 258.49 1121.16 263.424 1123.31 267.553C1125.49 271.715 1128.54 274.97 1132.5 277.285C1136.46 279.635 1141.13 280.776 1146.47 280.776C1151.97 280.776 1156.74 279.601 1160.77 277.252C1164.79 274.869 1167.92 271.58 1170.1 267.351C1172.28 263.122 1173.39 258.289 1173.39 252.919V229.256H1220.11ZM1068.23 229.256V254.228C1068.23 268.694 1065.04 281.045 1058.63 291.349C1052.25 301.619 1043.46 309.506 1032.28 315.011C1021.11 320.515 1008.35 323.235 994.021 323.235C979.689 323.235 966.969 320.515 955.793 315.011C944.616 309.506 935.821 301.619 929.376 291.349C929.276 291.148 929.143 290.98 929.042 290.812V320.281H807.943V229.256H856.41V279.433H923.671C921.053 271.882 919.711 263.491 919.711 254.228V229.256H967.607V257.719C967.607 263.189 968.647 267.988 970.761 272.083C972.842 276.211 975.863 279.434 979.857 281.817C983.818 284.166 988.583 285.374 994.121 285.374C999.659 285.374 1004.36 284.166 1008.25 281.817C1012.18 279.434 1015.17 276.211 1017.28 272.083C1019.39 267.988 1020.44 263.189 1020.44 257.719V229.256H1068.23ZM1256.35 82.5486C1249 82.5486 1242.73 80.0321 1237.49 74.9976C1232.26 69.9966 1229.64 63.9208 1229.64 56.8052C1229.64 49.6562 1232.26 43.615 1237.49 38.614C1242.73 33.6465 1249 31.1295 1256.35 31.1295C1263.84 31.1295 1270.15 33.6465 1275.32 38.614C1280.49 43.615 1283.07 49.6562 1283.07 56.8052C1283.07 63.9208 1280.49 69.9966 1275.32 74.9976C1270.15 80.0321 1263.84 82.5486 1256.35 82.5486Z" fill="black"/>
<path d="M744.06 204.955H1856.85" stroke="black" stroke-width="25" stroke-miterlimit="1.5" stroke-linejoin="round"/>
<path d="M1922.81 270.919C1959.24 270.919 1988.78 241.386 1988.78 204.956C1988.78 168.526 1959.24 138.993 1922.81 138.993C1886.38 138.993 1856.85 168.526 1856.85 204.956C1856.85 241.386 1886.38 270.919 1922.81 270.919Z" fill="white"/>
<path fill-rule="evenodd" clip-rule="evenodd" d="M1922.81 128.862C1964.81 128.862 1998.91 162.959 1998.91 204.956C1998.91 246.956 1964.81 281.054 1922.81 281.054C1880.81 281.054 1846.71 246.956 1846.71 204.956C1846.71 162.959 1880.81 128.862 1922.81 128.862ZM1922.81 149.124C1892 149.124 1866.98 174.143 1866.98 204.956C1866.98 235.772 1892 260.791 1922.81 260.791C1953.63 260.791 1978.64 235.772 1978.64 204.956C1978.64 174.143 1953.63 149.124 1922.81 149.124Z" fill="black"/>
</svg>
