<?xml version="1.0" encoding="UTF-8" standalone="no"?>
<!DOCTYPE svg PUBLIC "-//W3C//DTD SVG 1.1//EN" "http://www.w3.org/Graphics/SVG/1.1/DTD/svg11.dtd">
<svg width="100%" height="100%" viewBox="0 0 355 226" version="1.1" xmlns="http://www.w3.org/2000/svg" xmlns:xlink="http://www.w3.org/1999/xlink" xml:space="preserve" xmlns:serif="http://www.serif.com/" style="fill-rule:evenodd;clip-rule:evenodd;stroke-linecap:round;stroke-linejoin:round;stroke-miterlimit:1.5;">
    <g transform="matrix(1,0,0,1,-2193.03,-1267.99)">
        <g id="Artboard6" transform="matrix(1,0,0,1,36.3416,1.65816)">
            <rect x="2156.69" y="1266.33" width="354.286" height="225.814" style="fill:none;"/>
            <clipPath id="_clip1">
                <rect x="2156.69" y="1266.33" width="354.286" height="225.814"/>
            </clipPath>
            <g clip-path="url(#_clip1)">
                <g transform="matrix(1,0,0,1,-0.117766,1066)">
                    <g transform="matrix(2.14423,0,0,2.14423,876.302,-762.229)">
                        <g transform="matrix(5.07409,0,0,2.53704,607.038,461.126)">
                            <rect x="1" y="1" width="15" height="30" style="fill:white;fill-rule:nonzero;"/>
                        </g>
                        <g transform="matrix(5.07409,0,0,2.53704,607.038,461.126)">
                            <path d="M16.643,-0.287L16.643,32.287L0.357,32.287L0.357,-0.287L16.643,-0.287ZM1.643,2.287C1.643,2.287 1.643,29.713 1.643,29.713C1.643,29.713 15.357,29.713 15.357,29.713C15.357,29.713 15.357,2.287 15.357,2.287L1.643,2.287Z"/>
                        </g>
                    </g>
                    <g transform="matrix(-1,0,0,1,5183.3,-105.141)">
                        <g transform="matrix(1.70988,0,0,1.70988,1610.93,-914.661)">
                            <circle cx="641.799" cy="779.804" r="19.038" style="fill:white;stroke:black;stroke-width:5px;"/>
                        </g>
                        <g transform="matrix(0.776975,0,0,0.776975,2505.98,-147.479)">
                            <path d="M418.684,728.185L309.269,728.185" style="fill:none;stroke:black;stroke-width:14px;"/>
                        </g>
                    </g>
                    <g transform="matrix(1,0,0,1,12.4927,-10.1882)">
                        <g transform="matrix(138.008,0,0,138.008,2224.83,372.378)">
                            <path d="M0.026,-0L0.149,-0L0.238,-0.579L0.275,-0.579L0.275,-0.705L0.161,-0.705L0.026,-0ZM0.113,-0.154L0.365,-0.154L0.347,-0.247L0.131,-0.247L0.113,-0.154ZM0.331,-0L0.453,-0L0.318,-0.705L0.241,-0.705L0.241,-0.579L0.331,-0Z" style="fill-rule:nonzero;"/>
                        </g>
                        <g transform="matrix(138.008,0,0,138.008,2296.49,372.378)">
                        </g>
                    </g>
                </g>
            </g>
        </g>
    </g>
</svg>
