<?xml version="1.0" encoding="UTF-8" standalone="no"?>
<!DOCTYPE svg PUBLIC "-//W3C//DTD SVG 1.1//EN" "http://www.w3.org/Graphics/SVG/1.1/DTD/svg11.dtd">
<svg width="100%" height="100%" viewBox="0 0 483 226" version="1.1" xmlns="http://www.w3.org/2000/svg" xmlns:xlink="http://www.w3.org/1999/xlink" xml:space="preserve" xmlns:serif="http://www.serif.com/" style="fill-rule:evenodd;clip-rule:evenodd;stroke-linecap:square;stroke-miterlimit:3;">
    <g transform="matrix(1,0,0,1,-2188,-993)">
        <g id="Artboard4" transform="matrix(1,0,0,1,-0.761348,-0.137084)">
            <rect x="2188.76" y="993.137" width="482.739" height="225.79" style="fill:none;"/>
            <clipPath id="_clip1">
                <rect x="2188.76" y="993.137" width="482.739" height="225.79"/>
            </clipPath>
            <g clip-path="url(#_clip1)">
                <g transform="matrix(1,0,0,1,-481.982,647.759)">
                    <g transform="matrix(0.776975,0,0,0.776975,2505.98,-147.479)">
                        <g transform="matrix(2.75971,0,0,2.75971,-1270.57,-604.783)">
                            <g transform="matrix(2.53674,0,0,2.53674,609.575,461.126)">
                                <path d="M1,1L1,31L16,31C20.133,31 23.667,29.533 26.6,26.6C29.533,23.667 31,20.133 31,16C31,11.867 29.533,8.333 26.6,5.4C23.667,2.467 20.133,1 16,1L1,1Z" style="fill:white;fill-rule:nonzero;"/>
                            </g>
                            <g id="Layer0_0_1_STROKES" transform="matrix(2.53674,0,0,2.53674,609.575,461.126)">
                                <path d="M1,1L16,1C20.133,1 23.667,2.467 26.6,5.4C29.533,8.333 31,11.867 31,16C31,20.133 29.533,23.667 26.6,26.6C23.667,29.533 20.133,31 16,31L1,31L1,1Z" style="fill:none;fill-rule:nonzero;stroke:black;stroke-width:2.57px;"/>
                            </g>
                        </g>
                        <g transform="matrix(2.20069,0,0,2.20069,-1151.96,-987.396)">
                            <circle cx="641.799" cy="779.804" r="19.038" style="fill:white;stroke:black;stroke-width:5px;stroke-linecap:round;stroke-linejoin:round;stroke-miterlimit:1.5;"/>
                        </g>
                        <g transform="matrix(2.20069,0,0,2.20069,-1151.96,-884.454)">
                            <circle cx="641.799" cy="779.804" r="19.038" style="fill:white;stroke:black;stroke-width:5px;stroke-linecap:round;stroke-linejoin:round;stroke-miterlimit:1.5;"/>
                        </g>
                        <path d="M418.684,728.185L309.269,728.185" style="fill:none;stroke:black;stroke-width:14px;stroke-linecap:round;stroke-linejoin:round;stroke-miterlimit:1.5;"/>
                        <path d="M418.684,831.724L309.269,831.724" style="fill:none;stroke:black;stroke-width:14px;stroke-linecap:round;stroke-linejoin:round;stroke-miterlimit:1.5;"/>
                    </g>
                    <g transform="matrix(-1,0,0,1,5825.75,39.6989)">
                        <g transform="matrix(1.70988,0,0,1.70988,1610.93,-914.661)">
                            <circle cx="641.799" cy="779.804" r="19.038" style="fill:white;stroke:black;stroke-width:5px;stroke-linecap:round;stroke-linejoin:round;stroke-miterlimit:1.5;"/>
                        </g>
                        <g transform="matrix(0.776975,0,0,0.776975,2505.98,-147.479)">
                            <path d="M418.684,728.185L309.269,728.185" style="fill:none;stroke:black;stroke-width:14px;stroke-linecap:round;stroke-linejoin:round;stroke-miterlimit:1.5;"/>
                        </g>
                    </g>
                </g>
            </g>
        </g>
    </g>
</svg>
