<?xml version="1.0" encoding="UTF-8" standalone="no"?>
<!DOCTYPE svg PUBLIC "-//W3C//DTD SVG 1.1//EN" "http://www.w3.org/Graphics/SVG/1.1/DTD/svg11.dtd">
<svg width="100%" height="100%" viewBox="0 0 355 226" version="1.1" xmlns="http://www.w3.org/2000/svg" xmlns:xlink="http://www.w3.org/1999/xlink" xml:space="preserve" xmlns:serif="http://www.serif.com/" style="fill-rule:evenodd;clip-rule:evenodd;stroke-linecap:round;stroke-linejoin:round;stroke-miterlimit:1.5;">
    <g transform="matrix(1,0,0,1,-2188,-1543)">
        <g id="Artboard5" transform="matrix(1,0,0,1,31.3068,59.0105)">
            <rect x="2156.69" y="1483.99" width="354.286" height="225.814" style="fill:none;"/>
            <clipPath id="_clip1">
                <rect x="2156.69" y="1483.99" width="354.286" height="225.814"/>
            </clipPath>
            <g clip-path="url(#_clip1)">
                <g transform="matrix(1,0,0,1,-0.117766,1284.32)">
                    <g transform="matrix(2.14423,0,0,2.14423,876.302,-762.229)">
                        <g transform="matrix(5.07409,0,0,2.53704,607.038,461.126)">
                            <rect x="1" y="1" width="15" height="30" style="fill:white;fill-rule:nonzero;"/>
                        </g>
                        <g transform="matrix(5.07409,0,0,2.53704,607.038,461.126)">
                            <path d="M16.643,-0.287L16.643,32.287L0.357,32.287L0.357,-0.287L16.643,-0.287ZM1.643,2.287L1.643,29.713L15.357,29.713C15.357,29.713 15.357,2.287 15.357,2.287L1.643,2.287Z"/>
                        </g>
                    </g>
                    <g transform="matrix(-1,0,0,1,5183.3,-105.141)">
                        <g transform="matrix(1.70988,0,0,1.70988,1610.93,-914.661)">
                            <circle cx="641.799" cy="779.804" r="19.038" style="fill:white;stroke:black;stroke-width:5px;"/>
                        </g>
                        <g transform="matrix(0.776975,0,0,0.776975,2505.98,-147.479)">
                            <path d="M418.684,728.185L309.269,728.185" style="fill:none;stroke:black;stroke-width:14px;"/>
                        </g>
                    </g>
                    <g transform="matrix(1,0,0,1,19.6119,-10.1882)">
                        <g transform="matrix(138.008,0,0,138.008,2217.6,372.378)">
                            <path d="M0.115,-0L0.264,-0C0.299,-0 0.329,-0.006 0.353,-0.018C0.377,-0.03 0.395,-0.048 0.408,-0.071C0.42,-0.094 0.426,-0.123 0.426,-0.156L0.426,-0.236C0.426,-0.263 0.422,-0.286 0.414,-0.305C0.405,-0.323 0.394,-0.338 0.379,-0.348C0.364,-0.358 0.346,-0.365 0.327,-0.368L0.327,-0.372C0.344,-0.374 0.358,-0.379 0.371,-0.388C0.384,-0.397 0.394,-0.41 0.401,-0.427C0.408,-0.443 0.411,-0.464 0.411,-0.489L0.411,-0.561C0.411,-0.593 0.406,-0.619 0.394,-0.64C0.382,-0.661 0.365,-0.678 0.343,-0.688C0.321,-0.699 0.294,-0.705 0.262,-0.705L0.115,-0.705L0.115,-0.611L0.231,-0.611C0.253,-0.611 0.268,-0.606 0.278,-0.596C0.288,-0.586 0.293,-0.57 0.293,-0.548L0.293,-0.471C0.293,-0.447 0.288,-0.431 0.279,-0.421C0.269,-0.411 0.253,-0.406 0.23,-0.406L0.115,-0.406L0.115,-0.32L0.236,-0.32C0.251,-0.32 0.264,-0.318 0.274,-0.313C0.284,-0.308 0.291,-0.3 0.296,-0.29C0.301,-0.28 0.303,-0.266 0.303,-0.25L0.303,-0.161C0.303,-0.138 0.298,-0.121 0.287,-0.11C0.276,-0.099 0.26,-0.093 0.237,-0.093L0.115,-0.093L0.115,-0ZM0.055,-0L0.175,-0L0.175,-0.705L0.055,-0.705L0.055,-0Z" style="fill-rule:nonzero;"/>
                        </g>
                        <g transform="matrix(138.008,0,0,138.008,2287.16,372.378)">
                        </g>
                    </g>
                </g>
            </g>
        </g>
    </g>
</svg>
