<svg width="1718" height="1301" viewBox="0 0 1718 1301" fill="none" xmlns="http://www.w3.org/2000/svg">
<g clip-path="url(#clip0_27_2)">
<mask id="mask0_27_2" style="mask-type:alpha" maskUnits="userSpaceOnUse" x="-156" y="-32" width="2714" height="1567">
<path d="M711.118 567.25C586.318 773.25 191.618 947.75 87.6184 965.75C-875.484 1728.23 1319.02 1559.23 1449.02 1391.73C1622.76 1167.86 2371.01 1067.65 2556.58 1030.22C2532.55 987.375 1408.57 -80.6653 1487.02 -30.2717C1480.21 -28.4808 2567.58 1028 2556.58 1030.22C2576.66 1066.01 2231.02 -340.772 1449.02 124.228C1314.52 279.728 867.118 309.75 711.118 567.25Z" fill="white"/>
</mask>
<g mask="url(#mask0_27_2)">
<mask id="mask1_27_2" style="mask-type:alpha" maskUnits="userSpaceOnUse" x="82" y="93" width="1597" height="1096">
<rect x="82.5161" y="93.7283" width="1596" height="1095" fill="url(#paint0_linear_27_2)"/>
</mask>
<g mask="url(#mask1_27_2)">
<g filter="url(#filter0_f_27_2)">
<path d="M746.016 615.229C621.216 821.229 226.516 995.729 122.516 1013.73C322.016 1013.73 940.516 807.728 1070.52 640.228C1254.56 403.092 1421.35 389.728 1543.02 357.728C1399.02 265.228 1565.02 215.228 1385.52 230.228C1251.02 385.728 902.016 357.729 746.016 615.229Z" fill="url(#paint1_linear_27_2)"/>
</g>
</g>
<g filter="url(#filter1_f_27_2)">
<path d="M746.016 615.229C621.216 821.229 226.516 995.729 122.516 1013.73C322.016 1013.73 940.516 807.728 1070.52 640.228C1254.56 403.092 1421.35 389.728 1543.02 357.728C1399.02 265.228 1565.02 215.228 1385.52 230.228C1251.02 385.728 902.016 357.729 746.016 615.229Z" fill="url(#paint2_linear_27_2)"/>
</g>
</g>
</g>
<defs>
<filter id="filter0_f_27_2" x="-77.4839" y="27.5964" width="1820.5" height="1186.13" filterUnits="userSpaceOnUse" color-interpolation-filters="sRGB">
<feFlood flood-opacity="0" result="BackgroundImageFix"/>
<feBlend mode="normal" in="SourceGraphic" in2="BackgroundImageFix" result="shape"/>
<feGaussianBlur stdDeviation="100" result="effect1_foregroundBlur_27_2"/>
</filter>
<filter id="filter1_f_27_2" x="58.516" y="163.596" width="1548.5" height="914.133" filterUnits="userSpaceOnUse" color-interpolation-filters="sRGB">
<feFlood flood-opacity="0" result="BackgroundImageFix"/>
<feBlend mode="normal" in="SourceGraphic" in2="BackgroundImageFix" result="shape"/>
<feGaussianBlur stdDeviation="32" result="effect1_foregroundBlur_27_2"/>
</filter>
<linearGradient id="paint0_linear_27_2" x1="1037.02" y1="514.728" x2="1158.02" y2="704.228" gradientUnits="userSpaceOnUse">
<stop stop-color="white"/>
<stop offset="1" stop-color="white" stop-opacity="0"/>
</linearGradient>
<linearGradient id="paint1_linear_27_2" x1="692.014" y1="459.228" x2="1082.01" y2="743.227" gradientUnits="userSpaceOnUse">
<stop stop-color="#ADB8FA"/>
<stop offset="0.445" stop-color="#8AA7F9"/>
<stop offset="1" stop-color="#8ACAF9"/>
</linearGradient>
<linearGradient id="paint2_linear_27_2" x1="868.516" y1="321.228" x2="1028.02" y2="573.228" gradientUnits="userSpaceOnUse">
<stop stop-color="white"/>
<stop offset="1" stop-color="white" stop-opacity="0"/>
</linearGradient>
<clipPath id="clip0_27_2">
<rect width="1718" height="1301" fill="white"/>
</clipPath>
</defs>
</svg>
