<svg width="84" height="49" viewBox="0 0 84 49" fill="none" xmlns="http://www.w3.org/2000/svg">
<path d="M44 0.388306H58C67.3888 0.388306 75 7.99946 75 17.3883V17.3883C75 26.7771 67.3888 34.3883 58 34.3883H44V0.388306Z" fill="white"/>
<path d="M12 20.3883V1.38831L27 10.8883L12 20.3883Z" fill="white"/>
<path fill-rule="evenodd" clip-rule="evenodd" d="M28.0094 9.38832L15.4497 2.45599C13.4502 1.3524 11 2.79869 11 5.08248V9.38832H2C0.895431 9.38832 0 10.2838 0 11.3883V11.3883C0 12.4929 0.895431 13.3883 2 13.3883H11V16.742C11 18.9924 13.3859 20.4416 15.383 19.4042L27 13.3694V13.3883H44V19.3883H37C35.3431 19.3883 34 20.7315 34 22.3883V44.3883H15C13.8954 44.3883 13 45.2838 13 46.3883V46.3883C13 47.4929 13.8954 48.3883 15 48.3883H35.1239C36.7123 48.3883 38 47.1006 38 45.5122V23.3883H44V31.3883C44 33.0452 45.3431 34.3883 47 34.3883H58C66.7122 34.3883 73.8937 27.8347 74.8836 19.3883H82C83.1046 19.3883 84 18.4929 84 17.3883V17.3883C84 16.2838 83.1046 15.3883 82 15.3883H74.8836C73.8937 6.94198 66.7122 0.388321 58 0.388321H47C45.3431 0.388321 44 1.73147 44 3.38832V9.38832H28.0094ZM16.461 14.3366C15.7953 14.6825 15 14.1994 15 13.4492V8.4708C15 7.70953 15.8167 7.22744 16.4832 7.5953L21.1298 10.16C21.8288 10.5458 21.816 11.5548 21.1075 11.9229L16.461 14.3366ZM58 4.38832H49C48.4477 4.38832 48 4.83604 48 5.38832V29.3883C48 29.9406 48.4477 30.3883 49 30.3883H58C65.1797 30.3883 71 24.568 71 17.3883C71 10.2086 65.1797 4.38832 58 4.38832Z" fill="#18214B"/>
</svg>
